<?xml version="1.0" standalone="no"?>
<!DOCTYPE svg PUBLIC "-//W3C//DTD SVG 20010904//EN"
 "http://www.w3.org/TR/2001/REC-SVG-20010904/DTD/svg10.dtd">
<svg version="1.0" xmlns="http://www.w3.org/2000/svg"
 width="239.000000pt" height="235.000000pt" viewBox="0 0 239.000000 235.000000"
 preserveAspectRatio="xMidYMid meet">
<metadata>
Created by potrace 1.10, written by Peter Selinger 2001-2011
</metadata>
<g transform="translate(0.000000,235.000000) scale(0.100000,-0.100000)"
fill="#000000" stroke="none">
<path d="M1030 1641 c-96 -75 -226 -177 -289 -226 l-113 -90 -2 -345 -1 -345
-30 0 c-29 0 -30 -2 -33 -47 l-3 -48 646 0 646 0 -3 48 c-3 45 -4 47 -30 44
l-28 -3 0 348 0 348 -142 110 c-78 61 -202 159 -277 218 -75 59 -143 112 -151
116 -11 7 -62 -27 -190 -128z m405 -80 c115 -90 236 -185 268 -209 l57 -45 0
-339 0 -339 -31 3 -31 3 -1 267 c-2 250 -1 267 16 272 15 4 18 13 15 48 l-3
43 -517 3 -518 2 0 -45 c0 -31 5 -47 15 -51 13 -5 15 -45 15 -275 l0 -269 -30
0 -30 0 0 344 c0 266 3 345 13 349 6 3 129 98 272 210 143 113 264 202 270
199 5 -3 104 -80 220 -171z m265 -341 c0 -20 -7 -20 -490 -20 -483 0 -490 0
-490 20 0 20 7 20 490 20 483 0 490 0 490 -20z m-30 -65 c0 -13 -58 -15 -460
-15 -402 0 -460 2 -460 15 0 13 58 15 460 15 402 0 460 -2 460 -15z m0 -60 c0
-13 -58 -15 -460 -15 -402 0 -460 2 -460 15 0 13 58 15 460 15 402 0 460 -2
460 -15z m-5 -65 c0 -13 -59 -15 -457 -18 -454 -2 -458 -2 -458 18 0 20 4 20
458 18 398 -3 457 -5 457 -18z m5 -65 c0 -13 -58 -15 -460 -15 -402 0 -460 2
-460 15 0 13 58 15 460 15 402 0 460 -2 460 -15z m0 -60 c0 -13 -58 -15 -460
-15 -402 0 -460 2 -460 15 0 13 58 15 460 15 402 0 460 -2 460 -15z m-5 -65
c0 -13 -59 -15 -457 -18 -454 -2 -458 -2 -458 18 0 20 4 20 458 18 398 -3 457
-5 457 -18z m5 -65 c0 -13 -58 -15 -460 -15 -402 0 -460 2 -460 15 0 13 58 15
460 15 402 0 460 -2 460 -15z m0 -60 c0 -13 -58 -15 -460 -15 -402 0 -460 2
-460 15 0 13 58 15 460 15 402 0 460 -2 460 -15z m-5 -65 c0 -13 -59 -15 -457
-18 -454 -2 -458 -2 -458 18 0 20 4 20 458 18 398 -3 457 -5 457 -18z m155
-65 c0 -13 -75 -15 -615 -15 -540 0 -615 2 -615 15 0 13 75 15 615 15 540 0
615 -2 615 -15z"/>
<path d="M1173 1578 c-42 -11 -73 -56 -73 -105 0 -102 115 -146 186 -72 41 43
41 105 1 147 -32 33 -67 42 -114 30z m72 -34 c23 -9 43 -59 37 -91 -6 -30 -59
-65 -87 -57 -36 11 -65 46 -65 78 0 56 58 91 115 70z"/>
</g>
</svg>
